<?xml version="1.0" encoding="UTF-8"?>
<svg version="1.1" xmlns="http://www.w3.org/2000/svg" width="594" height="134">
<path d="M0 0 C0.77923828 0.00451172 1.55847656 0.00902344 2.36132812 0.01367188 C4.26175268 0.02533092 6.16213706 0.04326123 8.0625 0.0625 C6.38763939 17.25185889 2.82686301 33.07826647 -5.9375 48.0625 C-6.5975 48.0625 -7.2575 48.0625 -7.9375 48.0625 C-8.19660156 48.66191406 -8.45570312 49.26132812 -8.72265625 49.87890625 C-13.04437408 57.64688138 -23.95169926 61.40056642 -31.9375 64.0625 C-33.83220816 64.1310495 -35.7291834 64.14730372 -37.625 64.125 C-38.61886719 64.11597656 -39.61273438 64.10695313 -40.63671875 64.09765625 C-41.39597656 64.08605469 -42.15523438 64.07445313 -42.9375 64.0625 C-43.37571847 52.93849258 -39.0227826 43.12489008 -32.9375 34.0625 C-32.4425 33.0725 -32.4425 33.0725 -31.9375 32.0625 C-33.64590281 33.69662443 -34.87203047 34.93156094 -35.9375 37.0625 C-36.5975 37.0625 -37.2575 37.0625 -37.9375 37.0625 C-39.49642446 40.91650768 -40.99414179 44.78867263 -42.4375 48.6875 C-42.8603125 49.81414063 -43.283125 50.94078125 -43.71875 52.1015625 C-46.76617494 61.33290108 -47.25494168 70.53209904 -47.1875 80.1875 C-47.19523437 81.30253906 -47.20296875 82.41757813 -47.2109375 83.56640625 C-47.19566898 90.04789489 -46.60663624 95.79661555 -44.9375 102.0625 C-43.81214844 102.22105469 -42.68679687 102.37960938 -41.52734375 102.54296875 C-28.5841001 104.46956986 -15.22155659 107.06638492 -3.9375 114.0625 C-3.2421875 116.18359375 -3.2421875 116.18359375 -2.9375 118.0625 C-19.68110337 132.89763794 -41.44099622 135.32142758 -62.92529297 134.29882812 C-76.96388324 133.19740525 -89.24707658 127.63401776 -100.9375 120.0625 C-102.07251953 119.35287109 -102.07251953 119.35287109 -103.23046875 118.62890625 C-103.79378906 118.11199219 -104.35710937 117.59507813 -104.9375 117.0625 C-104.9375 115.7425 -104.9375 114.4225 -104.9375 113.0625 C-90.66543917 106.82381473 -77.64588246 102.80806971 -61.9375 102.0625 C-61.50021456 86.57935618 -61.90935987 74.26871145 -70.9375 61.0625 C-70.63714844 61.81015625 -70.33679688 62.5578125 -70.02734375 63.328125 C-69.64707031 64.31296875 -69.26679687 65.2978125 -68.875 66.3125 C-68.49214844 67.28703125 -68.10929687 68.2615625 -67.71484375 69.265625 C-66.92636213 72.10257395 -66.91312188 73.35659552 -67.9375 76.0625 C-82.22398677 76.52445825 -95.96732998 76.50117757 -107.5 66.9375 C-111.95933438 61.67777227 -116.48792319 56.23080202 -115.9375 49.0625 C-116.5975 49.0625 -117.2575 49.0625 -117.9375 49.0625 C-118.64054222 47.33959395 -119.32433491 45.60882534 -120 43.875 C-120.38285156 42.91207031 -120.76570313 41.94914062 -121.16015625 40.95703125 C-121.99372133 37.85315325 -121.82429818 36.11330883 -120.9375 33.0625 C-103.63003937 28.44717716 -86.2099664 30.09880976 -70.546875 38.81640625 C-68.9375 40.0625 -68.9375 40.0625 -67.9375 43.0625 C-67.15375 43.35125 -66.37 43.64 -65.5625 43.9375 C-62.26116246 45.35235895 -61.63067651 46.98309712 -59.9375 50.0625 C-59.76528931 49.24011841 -59.76528931 49.24011841 -59.58959961 48.40112305 C-57.24403333 37.47997397 -54.99493115 27.99971421 -47.9375 19.0625 C-47.195 17.99 -46.4525 16.9175 -45.6875 15.8125 C-33.67131415 3.79631415 -16.52081602 -0.18403651 0 0 Z M-74.9375 56.0625 C-74.6075 57.3825 -74.2775 58.7025 -73.9375 60.0625 C-73.2775 60.0625 -72.6175 60.0625 -71.9375 60.0625 C-72.5975 58.7425 -73.2575 57.4225 -73.9375 56.0625 C-74.2675 56.0625 -74.5975 56.0625 -74.9375 56.0625 Z " fill="#FCFCFC" transform="translate(121.9375,-0.0625)"/>
<path d="M0 0 C7.87130436 -0.23814456 16.72664838 0.17868069 23.703125 4.11328125 C23.20996184 9.04491288 22.40528503 12.90992121 19.703125 17.11328125 C17.953125 18.11328125 17.953125 18.11328125 15.703125 18.11328125 C14.07511771 17.61491167 12.44761153 17.11476409 10.82421875 16.6015625 C4.25429048 15.08914807 -3.09743883 15.47522331 -9.296875 18.11328125 C-10.68925547 19.98075388 -10.68925547 19.98075388 -11.296875 22.11328125 C-11.956875 23.10328125 -12.616875 24.09328125 -13.296875 25.11328125 C-14.08286375 31.36641298 -14.77265851 38.14513239 -11.90625 43.91015625 C-8.6782331 47.75570682 -6.34991798 49.52571811 -1.296875 50.11328125 C0.97307919 50.1798098 3.24481195 50.19871876 5.515625 50.17578125 C7.25779297 50.16224609 7.25779297 50.16224609 9.03515625 50.1484375 C10.35580078 50.13103516 10.35580078 50.13103516 11.703125 50.11328125 C11.373125 48.46328125 11.043125 46.81328125 10.703125 45.11328125 C10.06503906 45.12488281 9.42695313 45.13648438 8.76953125 45.1484375 C7.94324219 45.15746094 7.11695313 45.16648438 6.265625 45.17578125 C5.44191406 45.18738281 4.61820313 45.19898438 3.76953125 45.2109375 C1.703125 45.11328125 1.703125 45.11328125 0.703125 44.11328125 C0.6041956 41.94847328 0.573414 39.7803434 0.578125 37.61328125 C0.57554687 36.42734375 0.57296875 35.24140625 0.5703125 34.01953125 C0.703125 31.11328125 0.703125 31.11328125 1.703125 30.11328125 C3.47171693 30.01381672 5.24423951 29.98247908 7.015625 29.98046875 C8.09070313 29.97917969 9.16578125 29.97789063 10.2734375 29.9765625 C11.40523437 29.98042969 12.53703125 29.98429687 13.703125 29.98828125 C14.83492187 29.98441406 15.96671875 29.98054688 17.1328125 29.9765625 C18.20789063 29.97785156 19.28296875 29.97914062 20.390625 29.98046875 C21.38449219 29.98159668 22.37835938 29.98272461 23.40234375 29.98388672 C25.703125 30.11328125 25.703125 30.11328125 26.703125 31.11328125 C27.06922815 35.70905329 27.07482339 40.31739925 27.140625 44.92578125 C27.18638672 46.22322266 27.23214844 47.52066406 27.27929688 48.85742188 C27.39025958 58.18311334 27.39025958 58.18311334 25.41992188 60.8503418 C23.82421875 61.92578125 23.82421875 61.92578125 20.703125 63.11328125 C19.919375 63.50515625 19.135625 63.89703125 18.328125 64.30078125 C8.28281259 67.41004462 -5.35970747 67.61893385 -14.85546875 62.8203125 C-19.10805898 60.10396176 -22.44939619 57.33176838 -25.296875 53.11328125 C-26.34875 51.81390625 -26.34875 51.81390625 -27.421875 50.48828125 C-32.52076153 41.3102855 -31.66253106 31.16118668 -29.421875 21.23828125 C-26.25997424 12.45522358 -20.84038253 6.83084164 -12.83984375 2.3046875 C-8.48486509 0.26433651 -4.70999001 0.23229543 0 0 Z " fill="#FCFCFC" transform="translate(199.296875,25.88671875)"/>
<path d="M0 0 C4.62 0 9.24 0 14 0 C14.0093457 1.24088379 14.01869141 2.48176758 14.02832031 3.76025391 C14.06829283 8.37877866 14.13407207 12.99664238 14.20751953 17.61474609 C14.23568703 19.61075325 14.25692252 21.60687106 14.27099609 23.60302734 C14.29248403 26.47811364 14.33916426 29.35187529 14.390625 32.2265625 C14.39185364 33.11429352 14.39308228 34.00202454 14.39434814 34.91665649 C14.52630883 40.54089113 15.32187609 43.67902196 19 48 C21.35270593 49.17635297 22.820752 49.13359359 25.4375 49.125 C26.21996094 49.12757812 27.00242187 49.13015625 27.80859375 49.1328125 C30.17895347 49.08382548 30.17895347 49.08382548 33 48 C36.82544713 43.50773698 36.47257167 38.70967106 36.51171875 33.10546875 C36.52966995 32.15811356 36.54762115 31.21075836 36.56611633 30.23469543 C36.62015087 27.21900843 36.65409327 24.2034791 36.6875 21.1875 C36.7206791 19.13864997 36.75516931 17.08982072 36.79101562 15.04101562 C36.87587356 10.02745762 36.94271765 5.01394583 37 0 C39.47923801 -0.02685095 41.9581884 -0.04676547 44.4375 -0.0625 C45.14455078 -0.07087891 45.85160156 -0.07925781 46.58007812 -0.08789062 C48.38693559 -0.09653588 50.19387603 -0.05220011 52 0 C54.9787336 2.9787336 53.32402371 14.13344583 53.35009766 18.3605957 C53.36653411 20.30896044 53.39365775 22.25726804 53.43212891 24.20532227 C53.90376996 48.2200545 53.90376996 48.2200545 45.8203125 57.50317383 C39.5659061 63.72536316 34.10672617 64.99164589 25.5625 65.3125 C18.98112181 65.18452876 11.83176887 63.83176887 7 59 C7 58.34 7 57.68 7 57 C6.401875 56.835 5.80375 56.67 5.1875 56.5 C1.81535004 54.1876686 1.00232017 50.80922673 0 47 C-0.4399932 43.48014239 -0.51082514 39.98997394 -0.546875 36.4453125 C-0.56719788 35.46255341 -0.58752075 34.47979431 -0.60845947 33.46725464 C-0.64844901 31.4050457 -0.68169042 29.34269588 -0.70849609 27.28027344 C-0.75015155 24.11347883 -0.81277694 20.94761933 -0.87890625 17.78125 C-0.91527659 15.77345913 -0.95047476 13.7656466 -0.984375 11.7578125 C-1.0019989 10.80891144 -1.0196228 9.86001038 -1.03778076 8.88235474 C-1.04819397 8.00739349 -1.05860718 7.13243225 -1.06933594 6.23095703 C-1.08027283 5.46010773 -1.09120972 4.68925842 -1.10247803 3.89505005 C-1 2 -1 2 0 0 Z " fill="#FBFCFB" transform="translate(375,27)"/>
<path d="M0 0 C1.32 0 2.64 0 4 0 C5.59054218 3.43420779 7.17104525 6.8729511 8.75 10.3125 C9.1934375 11.26962891 9.636875 12.22675781 10.09375 13.21289062 C12.70428793 18.91384478 15.04852041 24.63197288 17.11425781 30.55297852 C18.53047082 34.46552068 20.26910046 38.21917238 22 42 C22.64651445 43.47886909 23.29234103 44.95803907 23.9375 46.4375 C25.77419774 50.61580441 27.87098657 54.62964995 30.046875 58.640625 C31 61 31 61 31 66 C25.39 66 19.78 66 14 66 C11 58.375 11 58.375 11 55 C1.1 55.495 1.1 55.495 -9 56 C-10.98 60.95 -10.98 60.95 -13 66 C-17.95 66 -22.9 66 -28 66 C-28 64.35 -28 62.7 -28 61 C-27.34 61 -26.68 61 -26 61 C-25.82984375 60.3709375 -25.6596875 59.741875 -25.484375 59.09375 C-24.09057406 54.17096372 -22.49687508 49.71631959 -20.10546875 45.19921875 C-17.79117375 40.59516191 -15.95134786 35.766299 -14 31 C-12.48244232 27.3255432 -10.87719927 23.7254602 -9.0625 20.1875 C-7.10071862 16.33132668 -5.52176365 12.37145394 -3.94921875 8.34375 C-2.78422274 5.46721663 -1.44471945 2.74496695 0 0 Z M0 32 C-0.99 34.97 -1.98 37.94 -3 41 C-0.36 41 2.28 41 5 41 C4.01 38.03 3.02 35.06 2 32 C1.34 32 0.68 32 0 32 Z " fill="#FBFCFC" transform="translate(541,25)"/>
<path d="M0 0 C5.37667113 2.59232358 7.41927181 5.61846677 9.69921875 11.0234375 C11.57958542 17.27909638 11.59857982 24.03763097 8.9375 30.0625 C6.36329974 34.45054956 2.53817888 38.61255112 -2.34375 40.33984375 C-5.08595374 40.78197442 -7.72269349 40.81944327 -10.5 40.8125 C-11.53125 40.81507812 -12.5625 40.81765625 -13.625 40.8203125 C-16.11446537 40.70531002 -18.11525483 40.33166266 -20.5 39.6875 C-20.56058594 40.90308594 -20.62117188 42.11867187 -20.68359375 43.37109375 C-20.76798332 44.95574228 -20.8526321 46.54037702 -20.9375 48.125 C-20.99647461 49.32866211 -20.99647461 49.32866211 -21.05664062 50.55664062 C-21.38671875 56.57421875 -21.38671875 56.57421875 -22.5 57.6875 C-24.66480797 57.7864294 -26.83293785 57.817211 -29 57.8125 C-30.1859375 57.81507812 -31.371875 57.81765625 -32.59375 57.8203125 C-35.5 57.6875 -35.5 57.6875 -36.5 56.6875 C-36.59887792 54.94367465 -36.62799032 53.19584457 -36.62939453 51.44921875 C-36.63254669 50.33135986 -36.63569885 49.21350098 -36.63894653 48.06176758 C-36.6369223 46.84513428 -36.63489807 45.62850098 -36.6328125 44.375 C-36.63376923 43.13580811 -36.63472595 41.89661621 -36.63571167 40.61987305 C-36.63639374 37.99361719 -36.63503538 35.36745367 -36.63037109 32.74121094 C-36.62467381 29.36821286 -36.62795302 25.99529435 -36.63394356 22.62229919 C-36.6384177 19.41486323 -36.63528882 16.207437 -36.6328125 13 C-36.63483673 11.7833667 -36.63686096 10.5667334 -36.63894653 9.31323242 C-36.63579437 8.19537354 -36.63264221 7.07751465 -36.62939453 5.92578125 C-36.62859894 4.93618408 -36.62780334 3.94658691 -36.62698364 2.92700195 C-36.5 0.6875 -36.5 0.6875 -35.5 -0.3125 C-33.52380553 -0.43764928 -31.54261827 -0.4882276 -29.5625 -0.5 C-28.48097656 -0.51417969 -27.39945312 -0.52835938 -26.28515625 -0.54296875 C-23.5 -0.3125 -23.5 -0.3125 -21.5 1.6875 C-20.736875 1.1925 -19.97375 0.6975 -19.1875 0.1875 C-12.91441602 -2.36426297 -6.39813739 -2.23108481 0 0 Z M-20.5 13.6875 C-22.23608419 17.15966838 -22.09211632 20.89930127 -21.5 24.6875 C-18.9848174 27.72051431 -17.40690056 28.51383819 -13.5625 29.25 C-9.27859609 28.46316051 -7.386205 26.91730084 -4.5 23.6875 C-3.91573203 19.9871362 -4.0499561 17.75635426 -5.5 14.3125 C-9.90641747 10.7322858 -15.74213247 10.94812172 -20.5 13.6875 Z " fill="#FBFCFB" transform="translate(473.5,51.3125)"/>
<path d="M0 0 C2.29141286 -0.05384521 4.58318188 -0.09272087 6.875 -0.125 C8.78925781 -0.15980469 8.78925781 -0.15980469 10.7421875 -0.1953125 C14 0 14 0 16 2 C16.75776264 3.68698982 17.46111782 5.39890633 18.125 7.125 C18.47820312 8.03507812 18.83140625 8.94515625 19.1953125 9.8828125 C19.46085937 10.58148438 19.72640625 11.28015625 20 12 C21.5478831 9.20625977 22.30760664 6.92393362 22.625 3.75 C22.74875 2.5125 22.8725 1.275 23 0 C26.70786487 -0.28328339 30.29967798 -0.42696023 34 0 C37.22916055 3.22916055 37.88524833 7.62674343 39 12 C39.66 12 40.32 12 41 12 C41.103125 11.29875 41.20625 10.5975 41.3125 9.875 C42.15003606 6.37257648 43.39692108 2.60307892 46 0 C48.01964199 -0.07244053 50.04167124 -0.08377188 52.0625 -0.0625 C53.71958984 -0.04896484 53.71958984 -0.04896484 55.41015625 -0.03515625 C56.26480469 -0.02355469 57.11945313 -0.01195312 58 0 C59.20741601 3.43982215 58.83701936 5.11310195 57.3046875 8.37890625 C56.92062744 9.21284912 56.53656738 10.04679199 56.14086914 10.90600586 C55.72313232 11.78264893 55.30539551 12.65929199 54.875 13.5625 C54.25129517 14.9074353 54.25129517 14.9074353 53.61499023 16.27954102 C52.79049517 18.05605691 51.96142105 19.83045589 51.12744141 21.60253906 C49.74773724 24.53642709 48.40134116 27.48476874 47.0625 30.4375 C46.70285156 31.21996094 46.34320313 32.00242188 45.97265625 32.80859375 C44.91890135 35.18271625 43.95062298 37.58294516 43 40 C41.68 40 40.36 40 39 40 C35.66666667 33.33333333 32.33333333 26.66666667 29 20 C28.76925781 20.68964844 28.53851563 21.37929687 28.30078125 22.08984375 C26.09046805 28.45869087 23.47856415 34.22615378 20 40 C18.14086914 39.76416016 18.14086914 39.76416016 16 39 C14.76733398 37.16162109 14.76733398 37.16162109 13.74609375 34.7734375 C13.36646484 33.90589844 12.98683594 33.03835937 12.59570312 32.14453125 C12.21349609 31.23058594 11.83128906 30.31664063 11.4375 29.375 C11.05142578 28.48425781 10.66535156 27.59351562 10.26757812 26.67578125 C8.86816628 23.43830035 7.4999302 20.1881604 6.13208008 16.93725586 C4.52335316 13.13984707 2.7379326 9.5143255 0.76953125 5.89453125 C0 4 0 4 0 0 Z " fill="#FBFCFC" transform="translate(310,52)"/>
<path d="M0 0 C2.44072173 1.9344272 3.08313065 3.64574453 3.99609375 6.58203125 C4.65609375 6.58203125 5.31609375 6.58203125 5.99609375 6.58203125 C9.32797988 12.02321626 8.76953861 18.45500284 7.99609375 24.58203125 C5.72449361 29.98372924 2.00751538 34.49807948 -3.00390625 37.58203125 C-11.64120415 39.7936577 -21.0456554 39.7032683 -29.00390625 35.58203125 C-33.12481913 32.26738393 -34.62237465 29.62127428 -36.00390625 24.58203125 C-36.67811296 17.44594728 -36.86988959 10.7676046 -33.00390625 4.58203125 C-23.71706008 -4.92078808 -11.65795239 -5.87560801 0 0 Z M-22.00390625 14.58203125 C-22.92057292 18.08203125 -22.92057292 18.08203125 -22.00390625 21.58203125 C-19.51990828 24.7353975 -19.51990828 24.7353975 -16.00390625 26.58203125 C-12.74098804 26.58203125 -10.9390287 26.31107221 -8.35546875 24.296875 C-6.19918657 21.56101409 -6.53010657 19.11357498 -6.65625 15.74609375 C-6.88848687 13.3912157 -6.88848687 13.3912157 -8.62890625 11.01953125 C-14.36844707 7.54559865 -18.26002663 9.40666825 -22.00390625 14.58203125 Z " fill="#FBFCFC" transform="translate(302.00390625,53.41796875)"/>
<path d="M0 0 C4.95 0 9.9 0 15 0 C15 21.12 15 42.24 15 64 C10.05 64 5.1 64 0 64 C-0.91400692 60.34397232 -1.0920815 57.75897716 -1.02172852 54.03808594 C-1.00163223 52.83714294 -0.98153595 51.63619995 -0.96083069 50.39886475 C-0.93379562 49.10708313 -0.90676056 47.81530151 -0.87890625 46.484375 C-0.85459095 45.14488549 -0.8307481 43.80538733 -0.80735779 42.46588135 C-0.74465704 38.947694 -0.67555114 35.42966069 -0.60510254 31.91162109 C-0.53429218 28.31875599 -0.46955135 24.72578205 -0.40429688 21.1328125 C-0.27546526 14.08842163 -0.13930444 7.04419269 0 0 Z " fill="#FCFDFC" transform="translate(579,27)"/>
<path d="M0 0 C0 4.29 0 8.58 0 13 C-3.80859375 14.7578125 -3.80859375 14.7578125 -7.6171875 16.515625 C-10.32409134 18.20189297 -10.83761207 19.09532459 -12 22 C-12.36008661 24.21604163 -12.36008661 24.21604163 -12.4140625 26.546875 C-12.47207031 27.81337891 -12.47207031 27.81337891 -12.53125 29.10546875 C-12.57765625 30.41451172 -12.57765625 30.41451172 -12.625 31.75 C-12.68300781 33.08224609 -12.68300781 33.08224609 -12.7421875 34.44140625 C-12.83620322 36.62727167 -12.91918002 38.81360692 -13 41 C-17.95 41 -22.9 41 -28 41 C-28 28.13 -28 15.26 -28 2 C-23.71 2 -19.42 2 -15 2 C-14.34 3.32 -13.68 4.64 -13 6 C-12.608125 5.566875 -12.21625 5.13375 -11.8125 4.6875 C-7.80977223 0.96082242 -5.59037585 0 0 0 Z " fill="#F9FBFB" transform="translate(263,50)"/>
<path d="M0 0 C0.66 0 1.32 0 2 0 C2.07586402 7.79616078 2.12852114 15.59222693 2.16479492 23.38867188 C2.17991145 26.04267941 2.20040495 28.69666186 2.22631836 31.35058594 C2.26257521 35.158266 2.27969763 38.96561675 2.29296875 42.7734375 C2.30845261 43.96617279 2.32393646 45.15890808 2.33988953 46.38778687 C2.34011612 47.48877716 2.34034271 48.58976746 2.34057617 49.72412109 C2.34723801 50.69674896 2.35389984 51.66937683 2.36076355 52.67147827 C2.24171158 53.43989044 2.12265961 54.20830261 2 55 C1.01 55.66 0.02 56.32 -1 57 C-1.02528819 49.20378306 -1.04284068 41.40757664 -1.05493164 33.61132812 C-1.05997042 30.95735275 -1.06680151 28.30338016 -1.07543945 25.64941406 C-1.08752489 21.84178989 -1.09323275 18.03420231 -1.09765625 14.2265625 C-1.10281754 13.03382721 -1.10797882 11.84109192 -1.11329651 10.61221313 C-1.11340981 8.96072769 -1.11340981 8.96072769 -1.11352539 7.27587891 C-1.115746 6.30325104 -1.11796661 5.33062317 -1.12025452 4.32852173 C-1 2 -1 2 0 0 Z " fill="#EFF2EF" transform="translate(592,27)"/>
<path d="M0 0 C0.99 0.33 1.98 0.66 3 1 C3 14.2 3 27.4 3 41 C1.68 41.66 0.36 42.32 -1 43 C-1.02464574 37.03686834 -1.042834 31.07376605 -1.05493164 25.1105957 C-1.05997278 23.08031702 -1.06680557 21.05004198 -1.07543945 19.01977539 C-1.08751467 16.10822653 -1.09323034 13.1967255 -1.09765625 10.28515625 C-1.10281754 9.3716188 -1.10797882 8.45808136 -1.11329651 7.51686096 C-1.11349168 5.34424573 -1.06211805 3.17172704 -1 1 C-0.67 0.67 -0.34 0.34 0 0 Z " fill="#F2F6F4" transform="translate(425,29)"/>
<path d="M0 0 C0.66 0.33 1.32 0.66 2 1 C0.88200014 2.33920838 -0.24461897 3.67122556 -1.375 5 C-2.31472656 6.11375 -2.31472656 6.11375 -3.2734375 7.25 C-4.12808594 8.11625 -4.12808594 8.11625 -5 9 C-5.66 9 -6.32 9 -7 9 C-9.0449004 14.99338693 -9.41816159 20.63323761 -9.625 26.9375 C-9.68300781 28.3925293 -9.68300781 28.3925293 -9.7421875 29.87695312 C-9.83575076 32.25112076 -9.92149208 34.62529492 -10 37 C-10.66 37 -11.32 37 -12 37 C-15.11296044 27.29488804 -13.96878421 17.7622307 -9.875 8.4375 C-7.14267107 4.88547239 -3.66507172 2.53333936 0 0 Z " fill="#F4F8F5" transform="translate(182,33)"/>
<path d="M0 0 C1.65 0 3.3 0 5 0 C4.67 0.99 4.34 1.98 4 3 C3.87164761 5.33254739 3.79790267 7.66824447 3.75390625 10.00390625 C3.72098744 11.3977932 3.68777548 12.79167326 3.65429688 14.18554688 C3.60676627 16.38008181 3.56228475 18.57458493 3.52319336 20.76928711 C3.48357534 22.88944427 3.43203132 25.00905065 3.37890625 27.12890625 C3.3538501 28.39806885 3.32879395 29.66723145 3.30297852 30.97485352 C3 34 3 34 1 36 C0.67 24.12 0.34 12.24 0 0 Z " fill="#EAF4EF" transform="translate(412,27)"/>
<path d="M0 0 C0.99 0 1.98 0 3 0 C3 7.92 3 15.84 3 24 C2.01 24.33 1.02 24.66 0 25 C0 16.75 0 8.5 0 0 Z " fill="#E1EBE8" transform="translate(425,43)"/>
<path d="M0 0 C3 1 3 1 4 3 C4.07033769 4.87379605 4.0843022 6.75001102 4.0625 8.625 C4.05347656 9.62789062 4.04445313 10.63078125 4.03515625 11.6640625 C4.02355469 12.43492188 4.01195312 13.20578125 4 14 C3.34 14 2.68 14 2 14 C1.67 14.99 1.34 15.98 1 17 C-0.13480527 13.39006828 -0.10015767 10.0157673 -0.0625 6.25 C-0.05347656 5.07953125 -0.04445313 3.9090625 -0.03515625 2.703125 C-0.02355469 1.81109375 -0.01195312 0.9190625 0 0 Z " fill="#F0F4F3" transform="translate(306,61)"/>
<path d="M0 0 C1.65 0 3.3 0 5 0 C4.67 0.99 4.34 1.98 4 3 C3.67 3 3.34 3 3 3 C2.67 10.59 2.34 18.18 2 26 C1.67 26 1.34 26 1 26 C0.67 17.42 0.34 8.84 0 0 Z " fill="#F2F8F6" transform="translate(412,27)"/>
<path d="M0 0 C0.99 0.33 1.98 0.66 3 1 C3 3.64 3 6.28 3 9 C2.34 9 1.68 9 1 9 C0.67 9.99 0.34 10.98 0 12 C0 8.04 0 4.08 0 0 Z " fill="#DEE9E5" transform="translate(425,29)"/>
<path d="M0 0 C0.66 0 1.32 0 2 0 C2 3.3 2 6.6 2 10 C1.01 10 0.02 10 -1 10 C-0.67 6.7 -0.34 3.4 0 0 Z " fill="#EFF6F3" transform="translate(201,59)"/>
<path d="M0 0 C2 2 2 2 2.125 5.125 C2.08375 6.07375 2.0425 7.0225 2 8 C1.01 8 0.02 8 -1 8 C-1.625 5.125 -1.625 5.125 -2 2 C-1.34 1.34 -0.68 0.68 0 0 Z " fill="#F3F5F6" transform="translate(73,91)"/>
<path d="M0 0 C2.64 0 5.28 0 8 0 C5.82575883 2.50037734 4.26954202 3.43628586 1 4 C0.67 2.68 0.34 1.36 0 0 Z " fill="#F3F5F5" transform="translate(455,60)"/>
<path d="M0 0 C1.98 0.495 1.98 0.495 4 1 C3.34 2.32 2.68 3.64 2 5 C1.01 5 0.02 5 -1 5 C-0.67 3.35 -0.34 1.7 0 0 Z " fill="#F1F9F5" transform="translate(312,53)"/>
<path d="M0 0 C0.99 0.33 1.98 0.66 3 1 C2.1875 2.9375 2.1875 2.9375 1 5 C0.01 5.33 -0.98 5.66 -2 6 C-2 4.35 -2 2.7 -2 1 C-1.34 0.67 -0.68 0.34 0 0 Z " fill="#EBF5F2" transform="translate(237,53)"/>
</svg>
