<?xml version="1.0" encoding="UTF-8"?>
<svg version="1.1" xmlns="http://www.w3.org/2000/svg" width="594" height="134">
<path d="M0 0 C0.73154297 0.00451172 1.46308594 0.00902344 2.21679688 0.01367188 C3.99873419 0.02531852 5.78062863 0.04324809 7.5625 0.0625 C6.82819333 4.16963132 6.07214263 8.27248557 5.3125 12.375 C5.10753906 13.52291016 4.90257813 14.67082031 4.69140625 15.85351562 C1.77723287 31.43992778 -3.15494198 45.47428689 -16.4375 55.0625 C-24.50446253 59.9100784 -32.01873841 62.39298286 -41.4375 62.0625 C-39.34053566 50.89457627 -36.69537877 40.12250513 -29.4375 31.0625 C-28.7775 31.0625 -28.1175 31.0625 -27.4375 31.0625 C-27.06625 30.19625 -27.06625 30.19625 -26.6875 29.3125 C-25.27022743 26.76140938 -23.52567713 25.08276893 -21.4375 23.0625 C-33.88061907 29.33505593 -39.72137127 38.02411381 -44.2109375 50.83984375 C-47.17300692 60.39757706 -47.7541953 69.72766898 -47.6875 79.6875 C-47.69523437 80.85023437 -47.70296875 82.01296875 -47.7109375 83.2109375 C-47.69599867 89.81390155 -47.15164504 95.68207123 -45.4375 102.0625 C-44.74825439 102.18778076 -44.05900879 102.31306152 -43.34887695 102.44213867 C-13.6691081 107.9080946 -13.6691081 107.9080946 -4.4375 114.0625 C-4.4375 115.0525 -4.4375 116.0425 -4.4375 117.0625 C-21.08297621 130.89004126 -42.63318103 133.60544757 -63.4375 132.0625 C-77.45970713 130.40273984 -90.33696258 124.78435083 -101.4375 116.0625 C-101.22265625 114.21875 -101.22265625 114.21875 -100.4375 112.0625 C-89.52254179 104.50767983 -73.31539483 102.5035238 -60.4375 102.0625 C-59.81248085 77.18672672 -59.81248085 77.18672672 -71.9375 56 C-74.82703529 53.36144884 -77.80478374 51.56874821 -81.4375 50.0625 C-80.138125 51.0215625 -80.138125 51.0215625 -78.8125 52 C-73.28958216 56.60679403 -69.07088381 63.03894962 -67.4375 70.0625 C-67.4375 71.3825 -67.4375 72.7025 -67.4375 74.0625 C-92.69068834 75.01345688 -92.69068834 75.01345688 -103.6875 66.3125 C-111.75163409 58.46912321 -116.52869915 46.78870314 -119.4375 36.0625 C-119.4375 35.0725 -119.4375 34.0825 -119.4375 33.0625 C-103.51254243 29.21024245 -87.59399637 29.75542031 -72.93359375 37.47265625 C-67.22499139 41.1086518 -61.10311891 45.67370684 -58.4375 52.0625 C-58.19 50.845625 -57.9425 49.62875 -57.6875 48.375 C-54.03664774 32.22504938 -48.87657206 18.18521209 -34.875 8.375 C-24.29297427 2.18115557 -12.10631963 -0.14399099 0 0 Z " fill="#177446" transform="translate(122.4375,1.9375)"/>
<path d="M0 0 C-0.54339792 4.56454251 -1.79463821 7.9728176 -4 12 C-5.2375 11.67 -6.475 11.34 -7.75 11 C-15.64007106 9.28530739 -24.20561003 8.35277608 -31.375 12.69921875 C-35.62720265 16.1030252 -36.78357846 19.08376761 -37.375 24.3203125 C-37.61064823 31.2572073 -37.79455584 36.74881979 -33 42 C-25.80802561 46.59678977 -18.27971971 46.46719422 -10 46 C-10 43.36 -10 40.72 -10 38 C-10.99 38.33 -11.98 38.66 -13 39 C-15.04296875 38.87890625 -15.04296875 38.87890625 -17.1875 38.5625 C-19.0746875 38.2840625 -19.0746875 38.2840625 -21 38 C-21.02687279 36.18757948 -21.04633715 34.37504767 -21.0625 32.5625 C-21.07410156 31.55316406 -21.08570313 30.54382812 -21.09765625 29.50390625 C-21 27 -21 27 -20 26 C-18.29227642 25.91286169 -16.58101351 25.89299993 -14.87109375 25.90234375 C-13.31938477 25.90717773 -13.31938477 25.90717773 -11.73632812 25.91210938 C-10.64771484 25.92048828 -9.55910156 25.92886719 -8.4375 25.9375 C-6.7987793 25.94426758 -6.7987793 25.94426758 -5.12695312 25.95117188 C-2.41791505 25.96300174 0.29101599 25.97948457 3 26 C3.2325602 30.39494061 3.37450074 34.78830286 3.5 39.1875 C3.60054687 41.05631836 3.60054687 41.05631836 3.703125 42.96289062 C3.89605573 51.95828587 3.89605573 51.95828587 1.33740234 54.93286133 C-7.45848875 60.59351228 -18.57018991 61.12651213 -28.625 59.3125 C-36.1169741 57.43288812 -42.90915009 52.71981135 -47.15625 46.234375 C-52.34569319 37.41232158 -51.89272235 27.1221585 -50.64453125 17.1640625 C-48.69129928 9.90171007 -42.93003633 3.62002422 -36.7734375 -0.484375 C-25.28913952 -6.42007957 -11.4370124 -5.4277347 0 0 Z " fill="#2D2C2C" transform="translate(222,32)"/>
<path d="M0 0 C0.89589844 0.01417969 1.79179687 0.02835938 2.71484375 0.04296875 C4.06255859 0.05263672 4.06255859 0.05263672 5.4375 0.0625 C7.65234375 0.23046875 7.65234375 0.23046875 8.65234375 1.23046875 C8.78807452 4.20012824 8.86303008 7.14973966 8.8984375 10.12109375 C8.93138795 11.9635462 8.96459938 13.805994 8.99804688 15.6484375 C9.04539819 18.56262873 9.08979424 21.47680272 9.12915039 24.39111328 C9.1689506 27.19714732 9.22049083 30.00278127 9.2734375 32.80859375 C9.28185165 33.67647522 9.29026581 34.54435669 9.29893494 35.4385376 C9.38703207 39.76475992 9.52935202 43.34183446 11.65234375 47.23046875 C15.2828661 50.42092779 18.77043223 50.76074521 23.43359375 50.57421875 C27.04814653 50.01421762 29.02356492 48.73101447 31.65234375 46.23046875 C33.62400255 40.86569316 33.9709191 35.94785698 34.03125 30.26953125 C34.04824448 29.43835785 34.06523895 28.60718445 34.08274841 27.75082397 C34.13551014 25.11911423 34.17604647 22.48741842 34.21484375 19.85546875 C34.25876936 17.20216959 34.30536728 14.54899148 34.35765076 11.89584351 C34.38962943 10.24996114 34.41651284 8.60397056 34.43788147 6.95791626 C34.54051225 1.34230025 34.54051225 1.34230025 35.65234375 0.23046875 C37.31663426 0.13222938 38.98516306 0.10073244 40.65234375 0.10546875 C42.01359375 0.10160156 42.01359375 0.10160156 43.40234375 0.09765625 C45.65234375 0.23046875 45.65234375 0.23046875 46.65234375 1.23046875 C46.76058293 2.56905248 46.80133668 3.91320563 46.81347656 5.25610352 C46.82308411 6.11111954 46.83269165 6.96613556 46.84259033 7.84706116 C46.84684021 8.77924973 46.85109009 9.71143829 46.85546875 10.671875 C46.86116882 11.62811264 46.8668689 12.58435028 46.8727417 13.56956482 C46.88221214 15.60145964 46.88873375 17.63336995 46.89257812 19.6652832 C46.90222723 22.75565073 46.9332076 25.84533725 46.96484375 28.93554688 C46.97137929 30.9101523 46.97662759 32.88476249 46.98046875 34.859375 C46.99281555 35.77739395 47.00516235 36.6954129 47.0178833 37.64125061 C46.99348893 44.77058758 46.05066769 50.53235432 41.15234375 56.04296875 C40.32734375 56.76484375 39.50234375 57.48671875 38.65234375 58.23046875 C38.17539062 58.73578125 37.6984375 59.24109375 37.20703125 59.76171875 C32.01384965 64.66784006 24.64855036 64.82031551 17.90625 64.640625 C10.23245138 63.67333946 4.62234033 60.00744128 -0.19140625 54.07421875 C-3.67250621 48.52327556 -3.71253218 43.35246477 -3.83203125 36.96875 C-3.85614075 35.98174606 -3.88025024 34.99474213 -3.90509033 33.97782898 C-3.95327865 31.89767578 -3.99669336 29.81740721 -4.03564453 27.73706055 C-4.09764416 24.54359164 -4.18066351 21.35113439 -4.265625 18.15820312 C-4.30985754 16.13674601 -4.35286872 14.11526172 -4.39453125 12.09375 C-4.43341461 10.65628166 -4.43341461 10.65628166 -4.4730835 9.18977356 C-4.48679993 8.30512924 -4.50051636 7.42048492 -4.51464844 6.5090332 C-4.53082214 5.72913528 -4.54699585 4.94923737 -4.56365967 4.14570618 C-4.21570226 1.06047234 -2.98929046 0.2934578 0 0 Z " fill="#2F2E2E" transform="translate(378.34765625,27.76953125)"/>
<path d="M0 0 C0.66 0 1.32 0 2 0 C7.9996938 12.8789613 13.84593515 25.81407999 19.4375 38.875 C19.93282227 40.03161133 20.42814453 41.18822266 20.93847656 42.37988281 C29 61.30000905 29 61.30000905 29 64 C24.38 64 19.76 64 15 64 C11.125 56.375 11.125 56.375 10 53 C3.4 53 -3.2 53 -10 53 C-10.639375 54.629375 -11.27875 56.25875 -11.9375 57.9375 C-13.875 62.875 -13.875 62.875 -15 64 C-17.01964199 64.07244053 -19.04167124 64.08377188 -21.0625 64.0625 C-22.16722656 64.05347656 -23.27195312 64.04445313 -24.41015625 64.03515625 C-25.26480469 64.02355469 -26.11945312 64.01195313 -27 64 C-26.34433233 59.80676515 -24.94902392 56.29656952 -23.2265625 52.42578125 C-22.94672012 51.79226746 -22.66687775 51.15875366 -22.3785553 50.50604248 C-21.46501549 48.4395884 -20.54493682 46.37611308 -19.625 44.3125 C-18.35007376 41.43352131 -17.0790116 38.55284554 -15.80859375 35.671875 C-15.48850845 34.9469838 -15.16842316 34.22209259 -14.83863831 33.47523499 C-11.22022127 25.26308619 -7.74349135 16.99278593 -4.28955078 8.71020508 C-3.65702393 7.20043091 -3.65702393 7.20043091 -3.01171875 5.66015625 C-2.64522217 4.77980713 -2.27872559 3.89945801 -1.90112305 2.99243164 C-1 1 -1 1 0 0 Z M0 28 C-0.64995297 29.41478135 -1.29478722 30.83191487 -1.9375 32.25 C-2.47697266 33.43335938 -2.47697266 33.43335938 -3.02734375 34.640625 C-4.15875123 37.22268112 -4.15875123 37.22268112 -5 41 C-1.37 41 2.26 41 6 41 C4.35 36.71 2.7 32.42 1 28 C0.67 28 0.34 28 0 28 Z " fill="#2F2E2E" transform="translate(540,27)"/>
<path d="M0 0 C0.66 0.99 1.32 1.98 2 3 C3.36125 2.01 3.36125 2.01 4.75 1 C9.88766601 -1.9298299 15.25728027 -1.79072219 21 -1 C26.16882399 1.49211157 29.6284192 5.0989586 32.0859375 10.296875 C34.16130586 16.43428911 34.05059858 23.59147149 31.3125 29.5 C28.3472889 34.53250616 24.4675448 37.13769216 19 39 C16.28125 39.265625 16.28125 39.265625 13.5 39.25 C12.5821875 39.25515625 11.664375 39.2603125 10.71875 39.265625 C7.8221718 38.98262598 5.63624347 38.20350245 3 37 C2.93941406 38.28777344 2.87882812 39.57554688 2.81640625 40.90234375 C2.73201753 42.58074159 2.6473687 44.25912636 2.5625 45.9375 C2.52318359 46.78763672 2.48386719 47.63777344 2.44335938 48.51367188 C2.40146484 49.32255859 2.35957031 50.13144531 2.31640625 50.96484375 C2.26141968 52.08814087 2.26141968 52.08814087 2.20532227 53.23413086 C2 55 2 55 1 56 C-0.85287502 56.07226502 -2.70833878 56.0838122 -4.5625 56.0625 C-5.57441406 56.05347656 -6.58632813 56.04445312 -7.62890625 56.03515625 C-8.80259766 56.01775391 -8.80259766 56.01775391 -10 56 C-11.02100044 52.93699869 -11.09010909 50.99288066 -11.02172852 47.79418945 C-11.00163223 46.73331619 -10.98153595 45.67244293 -10.96083069 44.579422 C-10.93379562 43.43559555 -10.90676056 42.2917691 -10.87890625 41.11328125 C-10.85529526 39.94113571 -10.83168427 38.76899017 -10.80735779 37.56132507 C-10.73068611 33.81159459 -10.64667644 30.0620688 -10.5625 26.3125 C-10.50928285 23.77279653 -10.45654243 21.23308302 -10.40429688 18.69335938 C-10.27506616 12.46211249 -10.13980781 6.23101806 -10 0 C-3.375 -1.125 -3.375 -1.125 0 0 Z M3 12 C1.020863 15.95827399 1.44676342 20.69492917 2 25 C3.87346626 27.88256657 3.87346626 27.88256657 7 29 C10.88484013 29.48560502 13.23166812 29.34148084 16.8125 27.75 C19.23268075 25.8138554 20.19268129 24.98707921 21 22 C21.15114094 17.68803781 20.72003745 14.87277267 17.9375 11.5 C13.13537388 9.04785049 7.59711189 8.69007944 3 12 Z " fill="#2F2E2E" transform="translate(448,53)"/>
<path d="M0 0 C3.96 0 7.92 0 12 0 C13.98 4.29 15.96 8.58 18 13 C20.95047835 8.38987758 22.5497272 5.63470383 22 0 C25.3 0 28.6 0 32 0 C33.98 4.29 35.96 8.58 38 13 C40.00448027 9.65919955 41.43290354 7.21231864 42.6875 3.6875 C43.120625 2.470625 43.55375 1.25375 44 0 C47.96 0 51.92 0 56 0 C53.59098411 7.65985391 50.58378925 14.99093614 47.4375 22.375 C46.6959668 24.13650391 46.6959668 24.13650391 45.93945312 25.93359375 C42.25643745 34.61534382 42.25643745 34.61534382 40 38 C39.34 38 38.68 38 38 38 C34.7 31.07 31.4 24.14 28 17 C26.906875 19.165625 25.81375 21.33125 24.6875 23.5625 C24.34936279 24.22967041 24.01122559 24.89684082 23.6628418 25.58422852 C21.61403566 29.66335083 19.76149369 33.78867509 18 38 C17.34 38 16.68 38 16 38 C11.61756345 28.30447633 7.24123103 18.60576649 2.9375 8.875 C2.63900146 8.20726562 2.34050293 7.53953125 2.03295898 6.8515625 C0 2.23114602 0 2.23114602 0 0 Z " fill="#2E2D2D" transform="translate(311,54)"/>
<path d="M0 0 C3.72567206 2.6838027 5.83015067 5.1769415 7.20703125 9.58984375 C8.09691544 15.94509999 8.41605275 22.37458475 5.26953125 28.15234375 C1.27513008 33.32615028 -3.51445873 36.1363901 -9.984375 37.03125 C-16.69191289 37.27219284 -22.37402974 36.77895263 -27.79296875 32.58984375 C-31.46789881 29.06227931 -33.63554857 25.85729987 -33.99609375 20.6640625 C-34.16982928 8.11167051 -34.16982928 8.11167051 -29.24609375 2.9765625 C-20.68753986 -4.95714122 -10.08384897 -5.73270784 0 0 Z M-20.60546875 10.21484375 C-22.32875417 13.66141459 -22.44389604 16.86180561 -21.79296875 20.58984375 C-20.40387975 23.63898311 -20.40387975 23.63898311 -17.79296875 25.58984375 C-14.29837413 26.52589588 -11.94691827 26.96409765 -8.48046875 25.83984375 C-6.14142895 24.10722168 -4.93384535 22.38171852 -4.421875 19.50390625 C-4.29503704 15.13172713 -4.33501685 13.20044628 -7.04296875 9.58984375 C-12.14484084 5.87939132 -15.72616862 5.84029881 -20.60546875 10.21484375 Z " fill="#2D2C2C" transform="translate(300.79296875,55.41015625)"/>
<path d="M0 0 C1.19496094 -0.00386719 1.19496094 -0.00386719 2.4140625 -0.0078125 C4.375 0.125 4.375 0.125 5.375 1.125 C5.46896057 3.05806498 5.49243517 4.99458838 5.48852539 6.92993164 C5.48844986 8.17114273 5.48837433 9.41235382 5.48829651 10.69117737 C5.48318911 12.0558374 5.4779731 13.42049702 5.47265625 14.78515625 C5.470792 16.17378183 5.46936813 17.56240807 5.46836853 18.95103455 C5.46454387 22.61221115 5.45471403 26.2733483 5.44366455 29.93450928 C5.43344932 33.66792263 5.42887067 37.40134234 5.42382812 41.13476562 C5.4130917 48.46486385 5.39549534 55.79492138 5.375 63.125 C1.085 63.125 -3.205 63.125 -7.625 63.125 C-7.625 42.665 -7.625 22.205 -7.625 1.125 C-4.78285932 0.17761977 -2.94891609 -0.00960559 0 0 Z " fill="#2C2B2B" transform="translate(585.625,27.875)"/>
<path d="M0 0 C0 3.96 0 7.92 0 12 C-2.24609375 12.5859375 -4.4921875 13.171875 -6.73828125 13.7578125 C-10.08062821 15.59350565 -10.71484263 17.43368828 -12 21 C-12.46384127 24.12382896 -12.5994581 27.22058467 -12.6875 30.375 C-12.72166016 31.20644531 -12.75582031 32.03789063 -12.79101562 32.89453125 C-12.87287146 34.92923351 -12.93812701 36.96459208 -13 39 C-16.96 39 -20.92 39 -25 39 C-26.56544436 35.86911129 -26.00148591 32.57285977 -25.87890625 29.1484375 C-25.85529526 28.37440582 -25.83168427 27.60037415 -25.80735779 26.80288696 C-25.73068562 24.3267397 -25.64667684 21.85090241 -25.5625 19.375 C-25.50928285 17.69793192 -25.45654243 16.02084863 -25.40429688 14.34375 C-25.27506572 10.22896977 -25.13925354 6.11445275 -25 2 C-21.37 2 -17.74 2 -14 2 C-13.67 3.98 -13.34 5.96 -13 8 C-12.29875 7.236875 -11.5975 6.47375 -10.875 5.6875 C-7.75783034 2.77362401 -4.45031218 0 0 0 Z " fill="#2E2D2D" transform="translate(262,52)"/>
<path d="M0 0 C2.475 0.495 2.475 0.495 5 1 C5 8.59 5 16.18 5 24 C4.67 24 4.34 24 4 24 C3.98541748 23.37955811 3.97083496 22.75911621 3.95581055 22.11987305 C3.88133412 19.30845367 3.78467436 16.49822251 3.6875 13.6875 C3.66494141 12.71103516 3.64238281 11.73457031 3.61914062 10.72851562 C3.58369141 9.79072266 3.54824219 8.85292969 3.51171875 7.88671875 C3.48553467 7.02264404 3.45935059 6.15856934 3.43237305 5.26831055 C2.92334628 2.59786013 2.07670092 1.68988817 0 0 Z " fill="#161617" transform="translate(586,28)"/>
</svg>
