<?xml version="1.0" encoding="UTF-8"?>
<svg version="1.1" xmlns="http://www.w3.org/2000/svg" width="134" height="134">
<path d="M0 0 C0.73154297 0.00451172 1.46308594 0.00902344 2.21679688 0.01367188 C3.99873419 0.02531852 5.78062863 0.04324809 7.5625 0.0625 C6.82819333 4.16963132 6.07214263 8.27248557 5.3125 12.375 C5.10753906 13.52291016 4.90257813 14.67082031 4.69140625 15.85351562 C1.77723287 31.43992778 -3.15494198 45.47428689 -16.4375 55.0625 C-24.50446253 59.9100784 -32.01873841 62.39298286 -41.4375 62.0625 C-39.34053566 50.89457627 -36.69537877 40.12250513 -29.4375 31.0625 C-28.7775 31.0625 -28.1175 31.0625 -27.4375 31.0625 C-27.06625 30.19625 -27.06625 30.19625 -26.6875 29.3125 C-25.27022743 26.76140938 -23.52567713 25.08276893 -21.4375 23.0625 C-33.88061907 29.33505593 -39.72137127 38.02411381 -44.2109375 50.83984375 C-47.17300692 60.39757706 -47.7541953 69.72766898 -47.6875 79.6875 C-47.69523437 80.85023437 -47.70296875 82.01296875 -47.7109375 83.2109375 C-47.69599867 89.81390155 -47.15164504 95.68207123 -45.4375 102.0625 C-44.74825439 102.18778076 -44.05900879 102.31306152 -43.34887695 102.44213867 C-13.6691081 107.9080946 -13.6691081 107.9080946 -4.4375 114.0625 C-4.4375 115.0525 -4.4375 116.0425 -4.4375 117.0625 C-21.08297621 130.89004126 -42.63318103 133.60544757 -63.4375 132.0625 C-77.45970713 130.40273984 -90.33696258 124.78435083 -101.4375 116.0625 C-101.22265625 114.21875 -101.22265625 114.21875 -100.4375 112.0625 C-89.52254179 104.50767983 -73.31539483 102.5035238 -60.4375 102.0625 C-59.81248085 77.18672672 -59.81248085 77.18672672 -71.9375 56 C-74.82703529 53.36144884 -77.80478374 51.56874821 -81.4375 50.0625 C-80.138125 51.0215625 -80.138125 51.0215625 -78.8125 52 C-73.28958216 56.60679403 -69.07088381 63.03894962 -67.4375 70.0625 C-67.4375 71.3825 -67.4375 72.7025 -67.4375 74.0625 C-92.69068834 75.01345688 -92.69068834 75.01345688 -103.6875 66.3125 C-111.75163409 58.46912321 -116.52869915 46.78870314 -119.4375 36.0625 C-119.4375 35.0725 -119.4375 34.0825 -119.4375 33.0625 C-103.51254243 29.21024245 -87.59399637 29.75542031 -72.93359375 37.47265625 C-67.22499139 41.1086518 -61.10311891 45.67370684 -58.4375 52.0625 C-58.19 50.845625 -57.9425 49.62875 -57.6875 48.375 C-54.03664774 32.22504938 -48.87657206 18.18521209 -34.875 8.375 C-24.29297427 2.18115557 -12.10631963 -0.14399099 0 0 Z " fill="#177446" transform="translate(122.4375,1.9375)"/>
</svg>
