<?xml version="1.0" encoding="UTF-8"?>
<svg version="1.1" xmlns="http://www.w3.org/2000/svg" width="134" height="134">
<path d="M0 0 C0.77923828 0.00451172 1.55847656 0.00902344 2.36132812 0.01367188 C4.26175268 0.02533092 6.16213706 0.04326123 8.0625 0.0625 C6.38763939 17.25185889 2.82686301 33.07826647 -5.9375 48.0625 C-6.5975 48.0625 -7.2575 48.0625 -7.9375 48.0625 C-8.19660156 48.66191406 -8.45570312 49.26132812 -8.72265625 49.87890625 C-13.04437408 57.64688138 -23.95169926 61.40056642 -31.9375 64.0625 C-33.83220816 64.1310495 -35.7291834 64.14730372 -37.625 64.125 C-38.61886719 64.11597656 -39.61273438 64.10695313 -40.63671875 64.09765625 C-41.39597656 64.08605469 -42.15523438 64.07445313 -42.9375 64.0625 C-43.37571847 52.93849258 -39.0227826 43.12489008 -32.9375 34.0625 C-32.4425 33.0725 -32.4425 33.0725 -31.9375 32.0625 C-33.64590281 33.69662443 -34.87203047 34.93156094 -35.9375 37.0625 C-36.5975 37.0625 -37.2575 37.0625 -37.9375 37.0625 C-39.49642446 40.91650768 -40.99414179 44.78867263 -42.4375 48.6875 C-42.8603125 49.81414063 -43.283125 50.94078125 -43.71875 52.1015625 C-46.76617494 61.33290108 -47.25494168 70.53209904 -47.1875 80.1875 C-47.19523437 81.30253906 -47.20296875 82.41757813 -47.2109375 83.56640625 C-47.19566898 90.04789489 -46.60663624 95.79661555 -44.9375 102.0625 C-43.81214844 102.22105469 -42.68679687 102.37960938 -41.52734375 102.54296875 C-28.5841001 104.46956986 -15.22155659 107.06638492 -3.9375 114.0625 C-3.2421875 116.18359375 -3.2421875 116.18359375 -2.9375 118.0625 C-19.68110337 132.89763794 -41.44099622 135.32142758 -62.92529297 134.29882812 C-76.96388324 133.19740525 -89.24707658 127.63401776 -100.9375 120.0625 C-102.07251953 119.35287109 -102.07251953 119.35287109 -103.23046875 118.62890625 C-103.79378906 118.11199219 -104.35710937 117.59507813 -104.9375 117.0625 C-104.9375 115.7425 -104.9375 114.4225 -104.9375 113.0625 C-90.66543917 106.82381473 -77.64588246 102.80806971 -61.9375 102.0625 C-61.50021456 86.57935618 -61.90935987 74.26871145 -70.9375 61.0625 C-70.63714844 61.81015625 -70.33679688 62.5578125 -70.02734375 63.328125 C-69.64707031 64.31296875 -69.26679687 65.2978125 -68.875 66.3125 C-68.49214844 67.28703125 -68.10929687 68.2615625 -67.71484375 69.265625 C-66.92636213 72.10257395 -66.91312188 73.35659552 -67.9375 76.0625 C-82.22398677 76.52445825 -95.96732998 76.50117757 -107.5 66.9375 C-111.95933438 61.67777227 -116.48792319 56.23080202 -115.9375 49.0625 C-116.5975 49.0625 -117.2575 49.0625 -117.9375 49.0625 C-118.64054222 47.33959395 -119.32433491 45.60882534 -120 43.875 C-120.38285156 42.91207031 -120.76570313 41.94914062 -121.16015625 40.95703125 C-121.99372133 37.85315325 -121.82429818 36.11330883 -120.9375 33.0625 C-103.63003937 28.44717716 -86.2099664 30.09880976 -70.546875 38.81640625 C-68.9375 40.0625 -68.9375 40.0625 -67.9375 43.0625 C-67.15375 43.35125 -66.37 43.64 -65.5625 43.9375 C-62.26116246 45.35235895 -61.63067651 46.98309712 -59.9375 50.0625 C-59.76528931 49.24011841 -59.76528931 49.24011841 -59.58959961 48.40112305 C-57.24403333 37.47997397 -54.99493115 27.99971421 -47.9375 19.0625 C-47.195 17.99 -46.4525 16.9175 -45.6875 15.8125 C-33.67131415 3.79631415 -16.52081602 -0.18403651 0 0 Z M-74.9375 56.0625 C-74.6075 57.3825 -74.2775 58.7025 -73.9375 60.0625 C-73.2775 60.0625 -72.6175 60.0625 -71.9375 60.0625 C-72.5975 58.7425 -73.2575 57.4225 -73.9375 56.0625 C-74.2675 56.0625 -74.5975 56.0625 -74.9375 56.0625 Z " fill="#FCFCFC" transform="translate(121.9375,-0.0625)"/>
<path d="M0 0 C2 2 2 2 2.125 5.125 C2.08375 6.07375 2.0425 7.0225 2 8 C1.01 8 0.02 8 -1 8 C-1.625 5.125 -1.625 5.125 -2 2 C-1.34 1.34 -0.68 0.68 0 0 Z " fill="#F3F5F6" transform="translate(73,91)"/>
</svg>
